<svg xmlns:dc="http://purl.org/dc/elements/1.1/" xmlns:cc="http://creativecommons.org/ns#" xmlns:rdf="http://www.w3.org/1999/02/22-rdf-syntax-ns#" xmlns:sodipodi="http://sodipodi.sourceforge.net/DTD/sodipodi-0.dtd" xmlns:inkscape="http://www.inkscape.org/namespaces/inkscape" xmlns="http://www.w3.org/2000/svg" id="svg7384" height="61" width="41" version="1.1" inkscape:version="0.91" sodipodi:docname="close.svg">
    <defs id="defs10"/>
    <sodipodi:namedview pagecolor="#8c8c8c" bordercolor="#666666" borderopacity="1" objecttolerance="10000" gridtolerance="10000" guidetolerance="10000" inkscape:pageopacity="1" inkscape:pageshadow="2" inkscape:window-width="1600" inkscape:window-height="849" id="namedview8" showgrid="true" inkscape:snap-bbox="true" inkscape:zoom="11.71" inkscape:cx="7.18" inkscape:cy="20.5" inkscape:window-x="0" inkscape:window-y="25" inkscape:window-maximized="1" inkscape:current-layer="svg7384" borderlayer="true" inkscape:showpageshadow="false">
        <inkscape:grid type="xygrid" id="grid3878" empspacing="4" visible="true" enabled="true" snapvisiblegridlinesonly="true"/>
    </sodipodi:namedview>
    <metadata id="metadata90">
        <rdf:RDF>
            <cc:Work rdf:about="">
                <dc:format>
                    image/svg+xml
                </dc:format>
                <dc:type rdf:resource="http://purl.org/dc/dcmitype/StillImage"/>
            </cc:Work>
        </rdf:RDF>
    </metadata>
    <circle id="path3836" cx="20.5" cy="40.5" r="17.5" style="fill-rule:nonzero;fill:#444;opacity:0.2"/>
    <circle id="path3766" cx="20.5" cy="40.5" r="16.5" style="fill-rule:nonzero;fill:#fff"/>
    <circle transform="scale(-1,1)" id="path3797" cx="-20.5" cy="40.5" r="14.5" style="fill-rule:nonzero;fill:#1D90CD"/>
    <g transform="matrix(0.88893521,0,0,0.88925773,-47.268944,-648.7581)" id="g27277-1-1" style="display:inline;fill:#fff">
        <path d="m71.18 770.03 1.27 0c0.01 0 0.03 0 0.04 0 0.32 0.01 0.65 0.16 0.87 0.4l2.89 2.89 2.93-2.89c0.34-0.29 0.57-0.39 0.87-0.4l1.27 0 0 1.27c0 0.36-0.04 0.7-0.32 0.95l-2.89 2.89 2.85 2.85c0.24 0.24 0.36 0.57 0.36 0.91l0 1.27-1.27 0c-0.34 0-0.67-0.12-0.91-0.36l-2.89-2.89-2.89 2.89c-0.24 0.24-0.57 0.36-0.91 0.36l-1.27 0 0-1.27c0-0.34 0.12-0.67 0.36-0.91l2.89-2.85-2.89-2.89c-0.27-0.25-0.38-0.59-0.36-0.95l0-1.27z" inkscape:connector-curvature="0" id="path27279-0-5" sodipodi:nodetypes="ccsccccccccccccccccccccccc" style="-inkscape-font-specification:'Andale Mono';block-progression:tb;color:#bebebe;direction:ltr;display:inline;enable-background:new;fill-rule:nonzero;fill:#fff;font-family:'Andale Mono';font-size:medium;letter-spacing:normal;line-height:normal;overflow:visible;text-align:start;text-anchor:start;text-decoration-line:none;text-decoration:none;text-indent:0;text-transform:none;word-spacing:normal;writing-mode:lr-tb"/>
    </g>
</svg>
