<?xml version="1.0" encoding="UTF-8" standalone="no"?>
<svg
   xmlns:dc="http://purl.org/dc/elements/1.1/"
   xmlns:cc="http://creativecommons.org/ns#"
   xmlns:rdf="http://www.w3.org/1999/02/22-rdf-syntax-ns#"
   xmlns:svg="http://www.w3.org/2000/svg"
   xmlns="http://www.w3.org/2000/svg"
   xmlns:sodipodi="http://sodipodi.sourceforge.net/DTD/sodipodi-0.dtd"
   xmlns:inkscape="http://www.inkscape.org/namespaces/inkscape"
   viewBox="0 0 15 15"
   id="svg2"
   version="1.1"
   inkscape:version="0.91 r13725"
   sodipodi:docname="nfl-window-close-symbolic.svg"
   width="15"
   height="15">
  <metadata
     id="metadata12">
    <rdf:RDF>
      <cc:Work
         rdf:about="">
        <dc:format>image/svg+xml</dc:format>
        <dc:type
           rdf:resource="http://purl.org/dc/dcmitype/StillImage" />
        <dc:title></dc:title>
      </cc:Work>
    </rdf:RDF>
  </metadata>
  <defs
     id="defs10" />
  <sodipodi:namedview
     pagecolor="#ffffff"
     bordercolor="#666666"
     borderopacity="1"
     objecttolerance="10"
     gridtolerance="10"
     guidetolerance="10"
     inkscape:pageopacity="0"
     inkscape:pageshadow="2"
     inkscape:window-width="1920"
     inkscape:window-height="1013"
     id="namedview8"
     showgrid="false"
     inkscape:zoom="14.75"
     inkscape:cx="-23.728814"
     inkscape:cy="8"
     inkscape:window-x="1920"
     inkscape:window-y="0"
     inkscape:window-maximized="1"
     inkscape:current-layer="svg2" />
  <g
     id="g4141"
     transform="matrix(0.87502721,0,0,0.87502721,0.50029847,0.49978232)">
    <path
       d="m 4,4 1,0 c 0.01,0 0.021,0 0.031,0 0.255,0.011 0.51,0.129 0.688,0.313 L 8,6.594 10.313,4.313 C 10.579,4.082 10.76,4.007 11.001,4 l 1,0 0,1 c 0,0.286 -0.034,0.551 -0.25,0.75 l -2.281,2.281 2.25,2.25 c 0.188,0.188 0.281,0.453 0.281,0.719 l 0,1 -1,0 C 10.736,12 10.47,11.907 10.282,11.719 L 8.001,9.438 5.72,11.719 C 5.532,11.907 5.267,12 5.001,12 l -1,0 0,-1 c 0,-0.265 0.093,-0.531 0.281,-0.719 L 6.563,8.031 4.282,5.75 C 4.071,5.555 3.979,5.281 4.001,5 l 0,-1 z"
       style="color:#353535;fill:#444444;fill-opacity:1"
       id="path6"
       inkscape:connector-curvature="0" />
  </g>
</svg>
